<svg width="48" height="48" viewBox="0 0 48 48" fill="none" xmlns="http://www.w3.org/2000/svg">
<path fill-rule="evenodd" clip-rule="evenodd" d="M40 24C40 32.8366 32.8366 40 24 40C15.1634 40 8 32.8366 8 24C8 15.1634 15.1634 8 24 8C32.8366 8 40 15.1634 40 24ZM21.0909 29.0227V28.6364C21.0985 27.3106 21.2159 26.2538 21.4432 25.4659C21.678 24.678 22.0189 24.0417 22.4659 23.5568C22.9129 23.072 23.4508 22.6326 24.0795 22.2386C24.5492 21.9356 24.9697 21.6212 25.3409 21.2955C25.7121 20.9697 26.0076 20.6098 26.2273 20.2159C26.447 19.8144 26.5568 19.3674 26.5568 18.875C26.5568 18.3523 26.4318 17.8939 26.1818 17.5C25.9318 17.1061 25.5947 16.803 25.1705 16.5909C24.7538 16.3788 24.2917 16.2727 23.7841 16.2727C23.2917 16.2727 22.8258 16.3826 22.3864 16.6023C21.947 16.8144 21.5871 17.1326 21.3068 17.5568C21.0265 17.9735 20.875 18.4924 20.8523 19.1136H16.2159C16.2538 17.5985 16.6174 16.3485 17.3068 15.3636C17.9962 14.3712 18.9091 13.6326 20.0455 13.1477C21.1818 12.6553 22.4356 12.4091 23.8068 12.4091C25.3144 12.4091 26.6477 12.6591 27.8068 13.1591C28.9659 13.6515 29.875 14.3674 30.5341 15.3068C31.1932 16.2462 31.5227 17.3788 31.5227 18.7045C31.5227 19.5909 31.375 20.3788 31.0795 21.0682C30.7917 21.75 30.3864 22.3561 29.8636 22.8864C29.3409 23.4091 28.7235 23.8826 28.0114 24.3068C27.4129 24.6629 26.9205 25.0341 26.5341 25.4205C26.1553 25.8068 25.8712 26.2538 25.6818 26.7614C25.5 27.2689 25.4053 27.8939 25.3977 28.6364V29.0227H21.0909ZM21.3977 35.5C21.9356 36.0303 22.5833 36.2955 23.3409 36.2955C23.8258 36.2955 24.2727 36.1742 24.6818 35.9318C25.0909 35.6818 25.4205 35.3523 25.6705 34.9432C25.928 34.5265 26.0606 34.0682 26.0682 33.5682C26.0606 32.8258 25.7841 32.1894 25.2386 31.6591C24.6932 31.1288 24.0606 30.8636 23.3409 30.8636C22.5833 30.8636 21.9356 31.1288 21.3977 31.6591C20.8674 32.1894 20.6061 32.8258 20.6136 33.5682C20.6061 34.3182 20.8674 34.9621 21.3977 35.5Z" fill="white"/>
</svg>
