<svg width="48" height="48" viewBox="0 0 48 48" fill="none" xmlns="http://www.w3.org/2000/svg">
<path d="M44.8149 29.5049L41.1351 33.1847C38.5237 31.8183 35.8383 32.3846 34.1617 34.0612C32.4851 35.7378 31.9188 38.4231 33.2852 41.0346L29.6054 44.7144C29.5949 44.7249 29.5657 44.7477 29.4941 44.7436C29.4202 44.7395 29.3197 44.7044 29.2291 44.6138L15.9911 31.3759L2.75318 18.138C2.66258 18.0473 2.62753 17.9468 2.62337 17.8729C2.61935 17.8013 2.64208 17.7721 2.65259 17.7616L6.33238 14.0818C8.94386 15.4482 11.6292 14.8819 13.3058 13.2053C14.9824 11.5287 15.5487 8.84335 14.1823 6.23188L17.8621 2.55208C17.8726 2.54157 17.9018 2.51884 17.9734 2.52286C18.0473 2.52702 18.1479 2.56207 18.2385 2.65268L31.4764 15.8906L44.7143 29.1285C44.8049 29.2191 44.84 29.3197 44.8441 29.3936C44.8482 29.4652 44.8254 29.4944 44.8149 29.5049Z" fill="#ECB77A" stroke="#896943" stroke-width="2"/>
</svg>
